<?xml version="1.0" encoding="utf-8"?>
<!-- Generator: Adobe Illustrator 23.0.1, SVG Export Plug-In . SVG Version: 6.00 Build 0)  -->
<svg version="1.1" id="Layer_1" xmlns="http://www.w3.org/2000/svg" xmlns:xlink="http://www.w3.org/1999/xlink" x="0px" y="0px"
	 viewBox="0 0 383.3 207.9" style="enable-background:new 0 0 383.3 207.9;" xml:space="preserve">
<style type="text/css">
	.st0{fill:#EB5949;}
	.st1{fill:#A34A2F;}
	.st2{fill:#F7F6EB;}
</style>
<path class="st0" d="M309.9,40.7c6.6,6.5,9.9,16.2,7.7,25.9c-3.3,15-18.2,24.5-33.2,21.2c-6-1.3-11.2-4.5-15-8.9l-60.1,22.7
	c75.7-2.1,134.5-18,134.5-37.3C343.8,55.4,331.1,47.2,309.9,40.7z M243.5,29.1c-16-1.4-33.2-2.2-51.2-2.2
	c-83.7,0-151.5,16.8-151.5,37.5c0,10.3,16.8,19.7,44.1,26.4c-0.1-2.7,0.1-5.4,0.8-8.1c3.8-14.9,18.9-24,33.8-20.2
	c8.2,2.1,14.6,7.5,18.1,14.5l107.2-40.5C244.1,34.2,243.6,31.7,243.5,29.1z"/>
<path class="st0" d="M383,149.1l-19.6-84.7l0,0v-0.1c0-14.7-25-27.8-64.1-36.3c0,2-0.2,4-0.7,6v0.1c4.4,1.3,8.2,3.7,11.3,6.7
	c21.2,6.5,34,14.7,34,23.7c0,19.3-58.8,35.2-134.5,37.3c-5.6,0.1-11.2,0.2-17,0.2c-42,0-80-4.2-107.4-11.1
	c-27.2-6.8-44.1-16.1-44.1-26.4c0-20.7,67.8-37.5,151.5-37.5c18,0,35.2,0.8,51.2,2.2c-0.1-2.4,0.1-4.8,0.6-7.2
	c0.2-0.7,0.3-1.3,0.5-2c-16.8-1.5-34.6-2.3-53.2-2.3c-95,0-173.1,21-173.1,46.8l-18,85c-2.3,15.7,8.5,29,23.7,33.5
	c111.8,33.3,223.6,33.3,335.4,0.1C374.7,178.5,385.4,164.9,383,149.1z M19,64.4c0.2,0,0.5,0,0.5,0H19z"/>
<path class="st1" d="M244.9,36.6L137.7,77.1c-3.5-7-9.9-12.5-18.1-14.5c-14.9-3.8-30.1,5.3-33.8,20.2c-0.7,2.7-0.9,5.4-0.8,8.1
	c-27.2-6.8-44.1-16.1-44.1-26.4c0-20.7,67.8-37.5,151.5-37.5c18,0,35.2,0.8,51.2,2.2C243.6,31.7,244.1,34.2,244.9,36.6z"/>
<path class="st1" d="M343.8,64.4c0,19.3-58.8,35.2-134.5,37.3L269.4,79c3.8,4.3,8.9,7.5,15,8.9c15,3.3,29.9-6.2,33.2-21.2
	c2.2-9.7-1.1-19.4-7.7-25.9C331.1,47.2,343.8,55.4,343.8,64.4z"/>
<path class="st2" d="M244.6,42.9"/>
<path class="st2" d="M317.6,66.6c-3.3,15-18.2,24.5-33.2,21.2c-6-1.3-11.2-4.5-15-8.9l-60.1,22.7c-5.6,0.1-11.2,0.2-17,0.2
	c-42,0-80-4.2-107.4-11.1c-0.1-2.7,0.1-5.4,0.8-8.1c3.8-14.9,18.9-24,33.8-20.2c8.2,2.1,14.6,7.5,18.1,14.5l107.2-40.5
	c-0.8-2.4-1.3-4.9-1.4-7.5c-0.1-2.4,0.1-4.8,0.6-7.2c0.2-0.7,0.3-1.3,0.5-2C248.8,6,263-2.5,277.3,0.7c13,2.9,21.9,14.4,21.9,27.3
	c0,2-0.2,4-0.7,6v0.1c4.4,1.3,8.2,3.7,11.3,6.7C316.5,47.2,319.7,56.9,317.6,66.6z"/>
</svg>
