<?xml version="1.0" encoding="utf-8"?>
<!-- Generator: Adobe Illustrator 23.0.1, SVG Export Plug-In . SVG Version: 6.00 Build 0)  -->
<svg version="1.1" id="Layer_1" xmlns="http://www.w3.org/2000/svg" xmlns:xlink="http://www.w3.org/1999/xlink" x="0px" y="0px"
	 viewBox="0 0 318.4 527.9" style="enable-background:new 0 0 318.4 527.9;" xml:space="preserve">
<style type="text/css">
	.st0{fill:#403F45;}
	.st1{fill:#EB5054;}
	.st2{fill:#A33139;}
</style>
<circle class="st0" cx="158.2" cy="12.7" r="12.7"/>
<path class="st1" d="M255.7,499.3H60.6v-389c0-53.9,43.7-97.6,97.6-97.6l0,0c53.9,0,97.6,43.7,97.6,97.6L255.7,499.3L255.7,499.3z"
	/>
<path class="st2" d="M252.5,461.2H65.9c-28.1,0-51,22.8-51,51v4.3c0,6.4,5.2,11.5,11.5,11.5h265.4c6.4,0,11.5-5.2,11.5-11.5v-4.3
	C303.4,484,280.6,461.2,252.5,461.2z"/>
<circle class="st0" cx="12.7" cy="263.4" r="12.7"/>
<circle class="st0" cx="305.6" cy="263.4" r="12.7"/>
<circle class="st1" cx="61.3" cy="264.4" r="49"/>
<circle class="st2" cx="158.2" cy="263.9" r="49"/>
<circle class="st1" cx="256.7" cy="264.4" r="49"/>
<circle class="st0" cx="158.2" cy="263.9" r="12.7"/>
<path class="st2" d="M261.8,164.8H54.5c-9.3,0-16.9-7.6-16.9-16.9l0,0c0-9.3,7.6-16.9,16.9-16.9h207.2c9.3,0,16.9,7.6,16.9,16.9l0,0
	C278.7,157.2,271.1,164.8,261.8,164.8z"/>
</svg>
