<?xml version="1.0" encoding="utf-8"?>
<!-- Generator: Adobe Illustrator 23.0.1, SVG Export Plug-In . SVG Version: 6.00 Build 0)  -->
<svg version="1.1" id="Layer_1" xmlns="http://www.w3.org/2000/svg" xmlns:xlink="http://www.w3.org/1999/xlink" x="0px" y="0px"
	 viewBox="0 0 566.5 115.2" style="enable-background:new 0 0 566.5 115.2;" xml:space="preserve">
<style type="text/css">
	.st0{opacity:0.79;}
	.st1{fill:#072733;}
</style>
<g class="st0">
	<g>
		<g>
			<path class="st1" d="M118.6,114.8c-3.9,0-7.2-0.6-9.9-1.9c-2.7-1.2-4.8-3-6.4-5.2c-1.6-2.2-2.8-4.9-3.5-8
				c-0.7-3.1-1.1-6.7-1.1-10.6V4.6c9,0,17.7-0.2,22.7-2.6l0,88.1c0,2.4,0.4,4,1.3,4.9c0.9,0.9,1.8,1.4,2.7,1.4c0.5,0,1,0,1.3,0
				c0.4,0,0.8-0.1,1.5-0.3l2.8,16.8c-1.2,0.5-2.8,1-4.7,1.3C123.4,114.6,121.1,114.8,118.6,114.8z"/>
			<path class="st1" d="M161.2,114.8c-3.5,0-6.7-0.6-9.5-1.8c-2.8-1.2-5.2-2.8-7.2-4.9c-2-2.1-3.5-4.6-4.6-7.3
				c-1.1-2.8-1.6-5.8-1.6-9.1c0-8,3.4-14.3,10.2-18.8c6.8-4.5,17.8-7.6,32.9-9.1c-0.2-3.4-1.2-6.1-3-8.1c-1.8-2-4.8-3-9-3
				c-3.3,0-6.6,0.6-9.8,1.9c-3.2,1.2-6.7,2.9-10.4,5.1l-8.2-15c4.9-3,10.1-5.4,15.5-7.3c5.4-1.9,11.1-2.8,17.2-2.8
				c9.9,0,17.4,2.8,22.6,8.4c5.2,5.6,7.8,14.3,7.8,26.2v43.9h-18.5l-1.5-7.9h-0.6c-3.3,2.9-6.7,5.2-10.3,7
				C169.5,113.8,165.5,114.8,161.2,114.8z M168.9,97.1c2.6,0,4.8-0.6,6.6-1.7c1.9-1.1,3.8-2.7,5.9-4.8V77.2
				c-8,1.1-13.6,2.8-16.7,4.9c-3.1,2.2-4.6,4.7-4.6,7.7c0,2.5,0.8,4.3,2.4,5.5C164.1,96.6,166.2,97.1,168.9,97.1z"/>
			<path class="st1" d="M223.3,112.9V36.3h18.5l1.5,9.7h0.6c3.3-3.1,6.9-5.8,10.8-8.1c3.9-2.3,8.5-3.5,13.7-3.5
				c8.3,0,14.4,2.7,18.1,8.2c3.8,5.5,5.6,13,5.6,22.7v47.6h-22.7V68.3c0-5.6-0.7-9.4-2.2-11.4c-1.5-2.1-3.9-3.1-7.2-3.1
				c-2.9,0-5.4,0.6-7.4,1.9c-2.1,1.3-4.3,3.1-6.8,5.5v51.7H223.3z"/>
			<path class="st1" d="M319.4,20.8c-1.8,0-3.2-0.6-4.4-1.7c-1.2-1.1-1.8-2.6-1.8-4.3c0-2,0.6-3.5,1.8-4.6c1.2-1.1,2.7-1.6,4.4-1.6
				c1.8,0,3.2,0.5,4.4,1.6c1.2,1.1,1.8,2.6,1.8,4.6c0,1.8-0.6,3.2-1.8,4.3C322.6,20.3,321.1,20.8,319.4,20.8z M315.8,112.9V38.8h6.8
				v74.1H315.8z"/>
			<path class="st1" d="M351.2,112.9V38.8h5.9l0.6,11.4h0.5c3.3-3.8,7-7,11-9.5c4.1-2.5,8.2-3.8,12.3-3.8c6,0,10.6,1.4,13.7,4.1
				c3.2,2.7,5.5,6.4,6.8,11c4.3-4.6,8.5-8.3,12.6-11c4.1-2.7,8.3-4.1,12.6-4.1c14.8,0,22.2,9.5,22.2,28.4v47.6h-7V66.2
				c0-7.9-1.3-13.8-4-17.5c-2.7-3.8-6.8-5.6-12.5-5.6c-6.7,0-14.1,4.6-22.2,13.9v55.9h-6.8V66.2c0-7.9-1.3-13.8-4-17.5
				c-2.7-3.8-6.9-5.6-12.7-5.6c-6.7,0-14.1,4.6-22.2,13.9v55.9H351.2z"/>
			<path class="st1" d="M492.8,114.8c-3,0-5.8-0.4-8.3-1.2c-2.6-0.8-4.8-2.1-6.8-3.7c-2-1.6-3.5-3.8-4.6-6.3
				c-1.1-2.6-1.7-5.6-1.7-9.1c0-8.2,3.8-14.5,11.5-18.8c7.7-4.3,19.8-7.3,36.4-9.2c0-2.8-0.2-5.6-0.6-8.4c-0.4-2.8-1.3-5.4-2.6-7.6
				c-1.3-2.2-3.1-4-5.4-5.4c-2.3-1.4-5.3-2.1-9-2.1c-4.9,0-9.5,1-13.6,2.9c-4.1,2-7.5,3.9-10,5.7l-3.1-5.1c1.3-0.9,3-2,4.9-3.1
				c1.9-1.1,4-2.2,6.4-3.1c2.4-0.9,4.9-1.7,7.7-2.4c2.8-0.7,5.7-1,8.7-1c4.3,0,8,0.7,11,2.2c3,1.5,5.4,3.5,7.3,6.1
				c1.9,2.6,3.2,5.6,4,9c0.8,3.5,1.2,7.2,1.2,11.2v47.4h-5.9l-0.6-9.6h-0.5c-3.8,3-7.9,5.6-12.3,8
				C502.4,113.6,497.8,114.8,492.8,114.8z M494.1,108.9c4.3,0,8.4-1,12.4-3.1c3.9-2.1,8.2-5,12.8-9V71.7c-7.6,0.9-14.1,2.1-19.3,3.4
				c-5.3,1.3-9.5,2.9-12.7,4.8c-3.2,1.9-5.5,4-6.9,6.3c-1.4,2.4-2.1,5-2.1,7.9c0,2.7,0.4,4.9,1.2,6.8c0.8,1.9,2,3.4,3.4,4.6
				c1.4,1.2,3.1,2.1,5,2.6C489.9,108.6,491.9,108.9,494.1,108.9z"/>
			<path class="st1" d="M561.6,114.8c-6.1,0-9.1-3.9-9.1-11.7V1.8h6.8v102.1c0,1.6,0.3,2.9,0.9,3.6c0.6,0.8,1.4,1.2,2.3,1.2
				c0.3,0,0.6,0,1,0c0.4,0,1-0.1,1.8-0.3l1.2,5.6c-0.7,0.2-1.4,0.4-2.2,0.5C563.6,114.7,562.7,114.8,561.6,114.8z"/>
		</g>
		<g>
			<path class="st1" d="M0,115.2V0h39.6c6.4,0,12.3,0.6,17.8,1.9C63,3.1,67.8,5.2,71.9,8c4.1,2.9,7.4,6.7,9.8,11.5
				c2.4,4.8,3.6,10.6,3.6,17.6c0,6.7-1.2,12.5-3.6,17.5c-2.4,4.9-5.7,9-9.8,12.2c-4.1,3.2-8.9,5.5-14.3,7.1
				c-5.4,1.5-11.2,2.3-17.3,2.3H26v39.1H0z M26,55.5h12.7c14.1,0,21.2-6.1,21.2-18.4c0-6-1.9-10.2-5.7-12.7
				c-3.8-2.5-9.2-3.7-16.3-3.7H26V55.5z"/>
		</g>
	</g>
</g>
</svg>
