<?xml version="1.0" encoding="utf-8"?>
<!-- Generator: Adobe Illustrator 23.0.1, SVG Export Plug-In . SVG Version: 6.00 Build 0)  -->
<svg version="1.1" id="Layer_1" xmlns="http://www.w3.org/2000/svg" xmlns:xlink="http://www.w3.org/1999/xlink" x="0px" y="0px"
	 viewBox="0 0 415.1 415.1" style="enable-background:new 0 0 415.1 415.1;" xml:space="preserve">
<style type="text/css">
	.st0{fill:#C19B81;}
	.st1{fill:#E0CBBD;}
	.st2{fill:#9B724E;}
</style>
<path class="st0" d="M307.6,288.4c7.4-13.6,11.5-28.8,11.5-45c0-32.7-17-61.8-43.3-80.3c13-16.5,20.7-37.3,20.7-60
	c0-6.4-0.6-12.6-1.8-18.6c14.7-7.3,24.9-22.4,24.9-40C319.7,20,299.7,0,275.1,0c-13.5,0-25.6,6-33.8,15.5c-12.6-6-26.8-9.4-41.8-9.4
	c-20.8,0-40.1,6.6-55.9,17.7c-8.9-10.2-22-16.7-36.6-16.7c-26.8,0-48.5,21.7-48.5,48.5c0,25.3,19.3,46,44,48.3
	c0.2,26.2,10.8,50,28,67.3c-20.4,18.4-33,43.9-33,72.1c0,13.7,3,26.7,8.4,38.7l-2.6,48.5c-7.9,8.9-12.7,20.5-12.7,33.1
	c0,28.4,24.4,51.5,54.5,51.5s54.5-23.1,54.5-51.5c0-7-1.5-13.6-4.1-19.7c4.2,0.4,8.5,0.7,12.9,0.7c12.3,0,24.1-1.8,35.1-5.2l5.6,12
	c1.6,6.4,4.4,12.2,8.2,17.5l0,0l0,0c9.8,13.4,26.2,22.2,44.8,22.2c30.1,0,54.5-23.1,54.5-51.5C356.6,312.9,335.1,291,307.6,288.4z"
	/>
<path class="st1" d="M206.7,178.4c-28.3,0-51.2-27.1-51.2-46.1s22.9-34.5,51.2-34.5s51.2,15.5,51.2,34.5S234.9,178.4,206.7,178.4z"
	/>
<path class="st2" d="M206.7,133.6c-9.8,0-17.7-9.3-17.7-15.9s7.9-11.9,17.7-11.9s17.7,5.3,17.7,11.9S216.4,133.6,206.7,133.6z"/>
<ellipse transform="matrix(0.4014 -0.9159 0.9159 0.4014 0.4457 204.5902)" class="st2" cx="156.8" cy="102" rx="11.6" ry="8.3"/>
<ellipse transform="matrix(0.8334 -0.5527 0.5527 0.8334 -12.2302 153.484)" class="st2" cx="248.5" cy="97" rx="8.3" ry="11.6"/>
<path class="st2" d="M156.8,185.7c0,0,45.3,15.4,91.7-2.6c0,0,33.3,51.8,35.9,74c2.6,22.1-12.4,67.6-74,68.7
	c-61.6,1.1-75.5-48.4-71.3-66.8C143.2,240.5,156.8,185.7,156.8,185.7z"/>
<path class="st2" d="M128.6,37.8c0,0-22.5-19.9-39.4,0s-8.6,43.2,15,49.6C104.2,87.3,111.3,62.5,128.6,37.8z"/>
<path class="st2" d="M260.9,27.2c0,0,12.8-20.2,29.2-7.1c16.4,13.1,14.9,33.5-1.4,42.9C288.7,63.1,278.6,44.2,260.9,27.2z"/>
<ellipse transform="matrix(0.1561 -0.9877 0.9877 0.1561 -252.2111 464.1922)" class="st1" cx="145.5" cy="379.7" rx="28.3" ry="36.6"/>
<ellipse transform="matrix(0.8947 -0.4467 0.4467 0.8947 -123.9616 176.9449)" class="st1" cx="313.3" cy="351.4" rx="34.6" ry="28.3"/>
</svg>
