<?xml version="1.0" encoding="utf-8"?>
<!-- Generator: Adobe Illustrator 23.0.1, SVG Export Plug-In . SVG Version: 6.00 Build 0)  -->
<svg version="1.1" id="Layer_1" xmlns="http://www.w3.org/2000/svg" xmlns:xlink="http://www.w3.org/1999/xlink" x="0px" y="0px"
	 viewBox="0 0 446.6 464.6" style="enable-background:new 0 0 446.6 464.6;" xml:space="preserve">
<style type="text/css">
	.st0{fill:#614C3F;}
	.st1{fill:#DBB37A;}
	.st2{fill:#B18147;}
	.st3{fill:#E5C7A8;}
	.st4{fill:#C30D23;}
	.st5{fill:#321409;}
</style>
<path class="st0" d="M446.5,294.3L446.5,294.3c-0.5-10.4-2.6-20.4-6.1-29.7c0.4,3.6,0.6,7.3,0.6,11.1c0,54-43.7,97.7-97.7,97.7
	c-16.6,0-32.2-4.1-45.9-11.5c-8.6,45.2-48.3,79.4-96,79.4c-38.5,0-71.9-22.3-87.8-54.7c-2.7-8.7-4.2-17.9-4.3-27.5
	c-1.4,0.1-2.9,0.2-4.3,0.2c-0.8-4.6-1.2-9.4-1.2-14.3c-2,0.1-4,0.2-6,0.2c-38.6,0-71.9-22.4-87.8-54.8c-2.4-7.7-3.8-15.9-4.2-24.3
	c-0.1,1.6-0.1,3.1-0.1,4.7c0,3.7,0.2,7.4,0.6,11.1c5.5,48.8,46.9,86.6,97.1,86.6c1.2,0,2.4,0,3.6-0.1c0.8,0,1.6-0.1,2.4-0.1
	c0,3.2,0.2,6.5,0.6,9.6c5.5,48.8,46.8,86.7,97.1,86.7c47.7,0,87.4-34.2,96-79.4c13.7,7.3,29.3,11.5,45.9,11.5
	c54,0,97.7-43.7,97.7-97.7C446.6,297.4,446.5,295.8,446.5,294.3z M430.1,149C430.1,149,430.1,149,430.1,149
	c-0.5-10.5-2.6-20.5-6.1-29.8c0.4,3.6,0.6,7.3,0.6,11.1c0,25.2-9.5,48.1-25.2,65.4c3.6,2.6,7.1,5.4,10.3,8.4
	c1.3,1.2,2.6,2.5,3.9,3.8c10.4-15.5,16.5-34.2,16.5-54.4C430.2,152,430.2,150.5,430.1,149z M387,230.1c-12-5.3-29,7-38,27.5
	c-9,20.5-6.7,41.4,5.3,46.7c12,5.3,29-7,38-27.5C401.3,256.2,399,235.4,387,230.1z M367.2,94c-14.3,0-25.9,10.1-25.9,22.5
	s11.6,22.5,25.9,22.5c14.3,0,25.9-10.1,25.9-22.5S381.5,94,367.2,94z M337.9,320.4c-16.2,0-29.3,9.2-29.3,20.7
	c0,11.4,13.1,20.7,29.3,20.7c16.2,0,29.3-9.2,29.3-20.7C367.2,329.7,354.1,320.4,337.9,320.4z M280.1,205.4L280.1,205.4
	c-0.2-1.2-0.6-2.3-0.9-3.5c-5.2-17-19.6-30.4-37.9-35.3c-1.8-0.5-3.7-0.9-5.6-1.2c-3.1-0.5-6.4-0.8-9.7-0.8
	c-20.9,0-39,10.8-48.4,26.7c-0.8,1.3-1.5,2.6-2.1,4c-3,6.3-4.6,13.3-4.6,20.6c0,8.1,2,15.7,5.6,22.5c0-1.3,0.1-2.6,0.2-3.9
	c0.5-5.6,2.1-11,4.4-16c0.6-1.4,1.3-2.7,2.1-4c9.4-15.9,27.5-26.7,48.4-26.7c3.3,0,6.5,0.3,9.7,0.8c1.9,0.3,3.7,0.7,5.6,1.2
	c15.1,4,27.6,13.9,34.4,26.8v-0.1c0-0.2,0-0.5,0-0.7C281.3,212.3,280.9,208.8,280.1,205.4z M234.9,105.6c-20.5,0-37.2,10-37.2,22.4
	c0,12.3,16.6,22.4,37.2,22.4c20.5,0,37.2-10,37.2-22.4C272.1,115.6,255.4,105.6,234.9,105.6z M219.6,324.9
	c-12.1,0-21.8,9.8-21.8,21.8c0,12,9.8,21.8,21.8,21.8c12,0,21.8-9.8,21.8-21.8C241.4,334.7,231.6,324.9,219.6,324.9z M173,39.9
	c-6-8.3-22.8-6.5-37.6,4.1c-14.8,10.6-21.9,26-15.9,34.3c6,8.3,22.8,6.5,37.6-4.1C171.8,63.6,179,48.3,173,39.9z M150.2,346.7
	c-11.4,0-20.7,6.7-20.7,15c0,8.3,9.2,15,20.7,15c11.4,0,20.6-6.7,20.6-15C170.9,353.5,161.6,346.7,150.2,346.7z M140.3,194.3
	c-9,0-16.3,9.1-16.3,20.2c0,11.2,7.3,20.2,16.3,20.2c9,0,16.3-9,16.3-20.2C156.6,203.3,149.3,194.3,140.3,194.3z M84.3,140.6
	c-2.4-7.7-3.8-15.8-4.2-24.2c-0.1,1.5-0.1,3.1-0.1,4.6c0,3.7,0.2,7.4,0.6,11.1c0.7,6.4,2.1,12.7,4,18.7c1.1-0.2,2.2-0.3,3.3-0.4
	c0.6-0.1,1.2-0.1,1.8-0.2C87.7,147.1,85.9,143.9,84.3,140.6z M52.2,215.9c-10.4,0-18.8,8.4-18.8,18.8c0,10.4,8.4,18.8,18.8,18.8
	c10.4,0,18.8-8.4,18.8-18.8C71,224.3,62.6,215.9,52.2,215.9z"/>
<path class="st1" d="M440.4,264.6c-0.7-6.1-1.9-12.1-3.7-17.8c-4.6-14.8-12.5-28.1-23-39c-1.2-1.3-2.5-2.6-3.9-3.8
	c-3.2-3-6.7-5.8-10.3-8.4c15.6-17.3,25.2-40.3,25.2-65.4c0-3.7-0.2-7.4-0.6-11.1c-0.7-6.1-1.9-12.1-3.7-17.8
	c-12.3-39.9-49.5-68.9-93.4-68.9c-25.2,0-48.2,9.6-65.6,25.3C246.1,23.8,211.9,0,172.1,0c-54,0-97.7,43.7-97.7,97.7
	c0,12.1,2.2,23.6,6.2,34.3c-0.4-3.6-0.6-7.3-0.6-11.1c0-1.5,0-3.1,0.1-4.6c0.4,8.4,1.8,16.5,4.2,24.2c1.6,3.3,3.4,6.5,5.3,9.5
	c-0.6,0.1-1.2,0.1-1.8,0.2c-1.1,0.1-2.2,0.2-3.3,0.4C36.8,157.1,0,198,0,247.5c0,12.1,2.2,23.6,6.2,34.3c-0.4-3.6-0.6-7.3-0.6-11.1
	c0-1.6,0-3.1,0.1-4.7c0.4,8.4,1.8,16.6,4.2,24.3c15.9,32.5,49.2,54.8,87.8,54.8c2,0,4-0.1,6-0.2c0.1,4.9,0.5,9.6,1.2,14.3
	c1.5,0,2.9-0.1,4.3-0.2c0.1,9.5,1.6,18.8,4.3,27.5c15.9,32.4,49.2,54.7,87.8,54.7c47.7,0,87.4-34.2,96-79.4
	c13.7,7.3,29.3,11.5,45.9,11.5c54,0,97.7-43.7,97.7-97.7C441,271.9,440.8,268.2,440.4,264.6z M52.2,253.5
	c-10.4,0-18.8-8.4-18.8-18.8c0-10.4,8.4-18.8,18.8-18.8c10.4,0,18.8,8.4,18.8,18.8C71,245.1,62.6,253.5,52.2,253.5z M234.9,105.6
	c20.5,0,37.2,10,37.2,22.4c0,12.3-16.6,22.4-37.2,22.4c-20.5,0-37.2-10-37.2-22.4C197.7,115.6,214.4,105.6,234.9,105.6z M119.4,78.3
	c-6-8.3,1.2-23.7,15.9-34.3c14.8-10.6,31.6-12.4,37.6-4.1c6,8.3-1.2,23.7-15.9,34.3C142.3,84.8,125.4,86.7,119.4,78.3z M140.3,194.3
	c9,0,16.3,9.1,16.3,20.2c0,11.2-7.3,20.2-16.3,20.2c-9,0-16.3-9-16.3-20.2C124,203.3,131.3,194.3,140.3,194.3z M150.2,376.7
	c-11.4,0-20.7-6.7-20.7-15c0-8.3,9.2-15,20.7-15c11.4,0,20.6,6.7,20.6,15C170.9,370,161.6,376.7,150.2,376.7z M219.6,368.6
	c-12.1,0-21.8-9.8-21.8-21.8c0-12.1,9.8-21.8,21.8-21.8c12,0,21.8,9.8,21.8,21.8C241.4,358.8,231.6,368.6,219.6,368.6z M281.3,216.6
	L281.3,216.6c-0.3,19-11.6,35.4-28.2,44c-2.2,1.1-4.4,2.1-6.7,3c-6.3,2.3-13.1,3.6-20.3,3.6c-2.4,0-4.7-0.1-7-0.4
	c-8.9-1-17.2-4.1-24.2-8.6c-2-1.3-3.8-2.6-5.6-4.1c-2.3-1.9-4.5-4.1-6.4-6.4c-1.9-2.3-3.6-4.7-5.1-7.2c-0.4-0.7-0.8-1.3-1.1-2
	c-3.6-6.8-5.6-14.4-5.6-22.5c0-7.3,1.7-14.3,4.6-20.6c0.6-1.4,1.3-2.7,2.1-4c9.4-15.9,27.5-26.7,48.4-26.7c3.3,0,6.5,0.3,9.7,0.8
	c1.9,0.3,3.7,0.7,5.6,1.2c18.3,4.9,32.7,18.3,37.9,35.3c0.3,1.2,0.7,2.3,0.9,3.5v0c0.8,3.4,1.2,6.9,1.2,10.5
	C281.3,216.2,281.3,216.4,281.3,216.6z M367.2,94c14.3,0,25.9,10.1,25.9,22.5s-11.6,22.5-25.9,22.5c-14.3,0-25.9-10.1-25.9-22.5
	S352.9,94,367.2,94z M337.9,361.7c-16.2,0-29.3-9.2-29.3-20.7c0-11.4,13.1-20.7,29.3-20.7c16.2,0,29.3,9.2,29.3,20.7
	C367.2,352.5,354.1,361.7,337.9,361.7z M392.3,276.7c-9,20.5-26.1,32.8-38,27.5c-12-5.3-14.4-26.2-5.3-46.7
	c9-20.5,26.1-32.8,38-27.5C399,235.4,401.3,256.2,392.3,276.7z"/>
<path class="st2" d="M436.7,246.8c1.8,5.7,3,11.7,3.7,17.8c0.4,3.6,0.6,7.3,0.6,11.1c0,54-43.7,97.7-97.7,97.7
	c-16.6,0-32.2-4.1-45.9-11.5c-8.6,45.2-48.3,79.4-96,79.4c-38.5,0-71.9-22.3-87.8-54.7c12.3,39.9,49.4,68.8,93.3,68.8
	c47.7,0,87.4-34.2,96-79.4c13.7,7.3,29.3,11.4,45.9,11.4c52.4,0,95.2-41.3,97.6-93.1v0c0.1-1.5,0.1-3,0.1-4.5
	C446.6,274.3,443,259.8,436.7,246.8z M420.3,101.4c1.8,5.7,3,11.6,3.7,17.8c0.4,3.6,0.6,7.3,0.6,11.1c0,25.2-9.5,48.1-25.2,65.4
	c3.6,2.6,7.1,5.4,10.3,8.4c11.9-15.4,19.3-34.4,20.3-55.1c0,0,0,0,0,0c0.1-1.6,0.1-3.1,0.1-4.7C430.2,128.9,426.6,114.4,420.3,101.4
	z M387,230.1c-12-5.3-29,7-38,27.5c-9,20.5-6.7,41.4,5.3,46.7c12,5.3,29-7,38-27.5C401.3,256.2,399,235.4,387,230.1z M367.2,94
	c-14.3,0-25.9,10.1-25.9,22.5s11.6,22.5,25.9,22.5c14.3,0,25.9-10.1,25.9-22.5S381.5,94,367.2,94z M337.9,320.4
	c-16.2,0-29.3,9.2-29.3,20.7c0,11.4,13.1,20.7,29.3,20.7c16.2,0,29.3-9.2,29.3-20.7C367.2,329.7,354.1,320.4,337.9,320.4z
	 M279.2,201.9c-5.2-17-19.6-30.4-37.9-35.3c-1.8-0.5-3.7-0.9-5.6-1.2c-3.1-0.5-6.4-0.8-9.7-0.8c-20.9,0-39,10.8-48.4,26.7
	c-0.8,1.3-1.5,2.6-2.1,4c-3,6.3-4.6,13.3-4.6,20.6c0,8.1,2,15.7,5.6,22.5c0.4,0.7,0.7,1.4,1.1,2c-0.4-1.9-0.7-3.9-0.9-5.9
	c-0.1-1.5-0.2-3-0.2-4.6c0-7.3,1.7-14.3,4.6-20.6c0.6-1.4,1.3-2.7,2.1-4c9.4-15.9,27.5-26.7,48.4-26.7c3.3,0,6.5,0.3,9.7,0.8
	c1.9,0.3,3.7,0.7,5.6,1.2c14.3,3.8,26.2,12.8,33.2,24.7C279.8,204.2,279.5,203.1,279.2,201.9z M234.9,105.6
	c-20.5,0-37.2,10-37.2,22.4c0,12.3,16.6,22.4,37.2,22.4c20.5,0,37.2-10,37.2-22.4C272.1,115.6,255.4,105.6,234.9,105.6z
	 M219.6,324.9c-12.1,0-21.8,9.8-21.8,21.8c0,12,9.8,21.8,21.8,21.8c12,0,21.8-9.8,21.8-21.8C241.4,334.7,231.6,324.9,219.6,324.9z
	 M173,39.9c-6-8.3-22.8-6.5-37.6,4.1c-14.8,10.6-21.9,26-15.9,34.3c6,8.3,22.8,6.5,37.6-4.1C171.8,63.6,179,48.3,173,39.9z
	 M150.2,346.7c-11.4,0-20.7,6.7-20.7,15c0,8.3,9.2,15,20.7,15c11.4,0,20.6-6.7,20.6-15C170.9,353.5,161.6,346.7,150.2,346.7z
	 M140.3,194.3c-9,0-16.3,9.1-16.3,20.2c0,11.2,7.3,20.2,16.3,20.2c9,0,16.3-9,16.3-20.2C156.6,203.3,149.3,194.3,140.3,194.3z
	 M103.7,345c-2,0.1-4,0.2-6,0.2c-38.6,0-71.9-22.4-87.8-54.8c12.3,39.9,49.5,68.9,93.4,68.9c0.6,0,1.1,0,1.7,0
	C104.2,354.6,103.8,349.9,103.7,345z M84.3,140.6c1,3.3,2.2,6.6,3.6,9.7c0.6-0.1,1.2-0.1,1.8-0.2C87.7,147.1,85.9,143.9,84.3,140.6z
	 M52.2,215.9c-10.4,0-18.8,8.4-18.8,18.8c0,10.4,8.4,18.8,18.8,18.8c10.4,0,18.8-8.4,18.8-18.8C71,224.3,62.6,215.9,52.2,215.9z"/>
<path class="st1" d="M387,230.1c-12-5.3-29,7-38,27.5c-9,20.5-6.7,41.4,5.3,46.7c12,5.3,29-7,38-27.5
	C401.3,256.2,399,235.4,387,230.1z M367.2,94c-14.3,0-25.9,10.1-25.9,22.5s11.6,22.5,25.9,22.5c14.3,0,25.9-10.1,25.9-22.5
	S381.5,94,367.2,94z M337.9,320.4c-16.2,0-29.3,9.2-29.3,20.7c0,11.4,13.1,20.7,29.3,20.7c16.2,0,29.3-9.2,29.3-20.7
	C367.2,329.7,354.1,320.4,337.9,320.4z M234.9,105.6c-20.5,0-37.2,10-37.2,22.4c0,12.3,16.6,22.4,37.2,22.4
	c20.5,0,37.2-10,37.2-22.4C272.1,115.6,255.4,105.6,234.9,105.6z M219.6,324.9c-12.1,0-21.8,9.8-21.8,21.8c0,12,9.8,21.8,21.8,21.8
	c12,0,21.8-9.8,21.8-21.8C241.4,334.7,231.6,324.9,219.6,324.9z M173,39.9c-6-8.3-22.8-6.5-37.6,4.1c-14.8,10.6-21.9,26-15.9,34.3
	c6,8.3,22.8,6.5,37.6-4.1C171.8,63.6,179,48.3,173,39.9z M150.2,346.7c-11.4,0-20.7,6.7-20.7,15c0,8.3,9.2,15,20.7,15
	c11.4,0,20.6-6.7,20.6-15C170.9,353.5,161.6,346.7,150.2,346.7z M140.3,194.3c-9,0-16.3,9.1-16.3,20.2c0,11.2,7.3,20.2,16.3,20.2
	c9,0,16.3-9,16.3-20.2C156.6,203.3,149.3,194.3,140.3,194.3z M109.3,359.1c-1.4,0.1-2.9,0.2-4.3,0.2c0.5,3.1,1.1,6.1,1.9,9.1
	c0.8,3.2,1.9,6.4,3,9.5c1.1,3,2.3,5.8,3.7,8.7C110.9,377.9,109.4,368.6,109.3,359.1z M5.7,266c-0.1,1.6-0.1,3.1-0.1,4.7
	c0,3.7,0.2,7.4,0.6,11.1c1.1,2.9,2.3,5.8,3.7,8.5C7.5,282.6,6.1,274.5,5.7,266z M80.1,116.4c-0.1,1.5-0.1,3.1-0.1,4.6
	c0,3.7,0.2,7.4,0.6,11.1c1.1,2.9,2.3,5.8,3.7,8.6C81.9,132.9,80.5,124.8,80.1,116.4z M52.2,215.9c-10.4,0-18.8,8.4-18.8,18.8
	c0,10.4,8.4,18.8,18.8,18.8c10.4,0,18.8-8.4,18.8-18.8C71,224.3,62.6,215.9,52.2,215.9z"/>
<path class="st3" d="M272.1,128c0,12.3-16.6,22.4-37.2,22.4c-20.5,0-37.2-10-37.2-22.4c0-12.4,16.6-22.4,37.2-22.4
	C255.4,105.6,272.1,115.6,272.1,128z"/>
<path class="st3" d="M157,74.2c-14.8,10.6-31.6,12.4-37.6,4.1c-6-8.3,1.2-23.7,15.9-34.3c14.8-10.6,31.6-12.4,37.6-4.1
	C179,48.3,171.8,63.6,157,74.2z"/>
<path class="st3" d="M71,234.7c0,10.4-8.4,18.8-18.8,18.8c-10.4,0-18.8-8.4-18.8-18.8c0-10.4,8.4-18.8,18.8-18.8
	C62.6,215.9,71,224.3,71,234.7z"/>
<ellipse transform="matrix(0.1602 -0.9871 0.9871 0.1602 -157.8724 507.9233)" class="st3" cx="219.6" cy="346.7" rx="21.8" ry="21.8"/>
<path class="st3" d="M392.3,276.7c-9,20.5-26.1,32.8-38,27.5c-12-5.3-14.4-26.2-5.3-46.7c9-20.5,26.1-32.8,38-27.5
	C399,235.4,401.3,256.2,392.3,276.7z"/>
<path class="st4" d="M393.1,116.6c0,12.4-11.6,22.5-25.9,22.5c-14.3,0-25.9-10.1-25.9-22.5S352.9,94,367.2,94
	C381.5,94,393.1,104.1,393.1,116.6z"/>
<path class="st4" d="M156.6,214.5c0,11.2-7.3,20.2-16.3,20.2c-9,0-16.3-9-16.3-20.2c0-11.2,7.3-20.2,16.3-20.2
	C149.3,194.3,156.6,203.3,156.6,214.5z"/>
<path class="st4" d="M170.9,361.7c0,8.3-9.2,15-20.6,15c-11.4,0-20.7-6.7-20.7-15c0-8.3,9.2-15,20.7-15
	C161.6,346.7,170.9,353.5,170.9,361.7z"/>
<path class="st5" d="M367.2,341.1c0,11.4-13.1,20.7-29.3,20.7c-16.2,0-29.3-9.2-29.3-20.7c0-11.4,13.1-20.7,29.3-20.7
	C354.1,320.4,367.2,329.7,367.2,341.1z"/>
<path class="st5" d="M259.2,75.7c0,3.3-1.4,6.4-3.9,9c-2.3,2.4-5.5,4.4-9.2,5.7c-3.4,1.2-7.2,1.9-11.2,1.9
	c-13.4,0-24.3-7.4-24.3-16.5c0-5.2,3.5-9.9,9.1-12.9c1.2-0.6,2.5-1.2,3.8-1.7c1.7-0.6,3.5-1.1,5.4-1.4c1.9-0.3,3.9-0.5,6-0.5
	c11.8,0,21.6,5.7,23.8,13.2C259.1,73.4,259.2,74.5,259.2,75.7z"/>
</svg>
